g Bullet_Rifle
v -0.090813 0.03761598 -0.3085192
v -0.09829528 0 -0.3085192
v 0 0 -0.5
v -0.1738051 0 -0.125155
v -0.160575 0.06651235 -0.125155
v -0.06950526 0.06950526 -0.3085192
v 0 0 -0.5
v -0.160575 -0.06651235 -0.125155
v -0.090813 -0.03761598 -0.3085192
v 0 0 -0.5
v -0.1228988 0.1228988 -0.125155
v -0.03761598 0.090813 -0.3085192
v 0 0 -0.5
v -0.1995 0 0.09083334
v -0.184314 -0.07634535 0.09083334
v -0.184314 0.07634535 0.09083334
v -0.1228988 -0.1228988 -0.125155
v -0.1410678 -0.1410678 0.09083334
v -0.06950526 -0.06950526 -0.3085192
v 0 0 -0.5
v -0.06651235 0.160575 -0.125155
v 0 0.09829528 -0.3085192
v 0 0 -0.5
v 0 0.1738051 -0.125155
v -0.1410678 0.1410678 0.09083334
v -0.07634535 0.184314 0.09083334
v 0 0.1995 0.09083334
v 0 0.1995 0.2866667
v -0.07634535 0.184314 0.2866667
v 0 0.1995 0.5
v -0.07634535 0.184314 0.5
v -0.1410678 0.1410678 0.2866667
v -0.1410678 0.1410678 0.5
v -0.184314 0.07634535 0.2866667
v -0.184314 0.07634535 0.5
v -0.1995 0 0.2866667
v -0.1995 0 0.5
v -0.184314 -0.07634535 0.2866667
v -0.184314 -0.07634535 0.5
v -0.1410678 -0.1410678 0.2866667
v -0.1410678 -0.1410678 0.5
v -0.07634535 -0.184314 0.09083334
v -0.07634535 -0.184314 0.2866667
v -0.07634535 -0.184314 0.5
v 0 -0.1995 0.2866667
v 0 -0.1995 0.5
v 0 -0.1995 0.09083334
v -0.06651235 -0.160575 -0.125155
v 0 -0.1738051 -0.125155
v -0.03761598 -0.090813 -0.3085192
v 0 0 -0.5
v 0 -0.09829528 -0.3085192
v 0 0 -0.5
v 0.03761598 0.090813 -0.3085192
v 0 0.09829528 -0.3085192
v 0 0 -0.5
v 0 0.1738051 -0.125155
v 0.06651235 0.160575 -0.125155
v 0 0.1995 0.09083334
v 0.06950526 0.06950526 -0.3085192
v 0 0 -0.5
v 0.07634535 0.184314 0.09083334
v 0.1228988 0.1228988 -0.125155
v 0.07634535 0.184314 0.2866667
v 0 0.1995 0.2866667
v 0.07634535 0.184314 0.5
v 0 0.1995 0.5
v 0.1410678 0.1410678 0.5
v 0.1410678 0.1410678 0.2866667
v 0.184314 0.07634535 0.5
v 0.1410678 0.1410678 0.09083334
v 0.184314 0.07634535 0.2866667
v 0.1995 0 0.5
v 0.090813 0.03761598 -0.3085192
v 0 0 -0.5
v 0.160575 0.06651235 -0.125155
v 0.1995 0 0.2866667
v 0.184314 -0.07634535 0.5
v 0.184314 0.07634535 0.09083334
v 0.09829528 0 -0.3085192
v 0 0 -0.5
v 0.184314 -0.07634535 0.2866667
v 0.1410678 -0.1410678 0.5
v 0.1995 0 0.09083334
v 0.1738051 0 -0.125155
v 0.1410678 -0.1410678 0.2866667
v 0.07634535 -0.184314 0.5
v 0.090813 -0.03761598 -0.3085192
v 0 0 -0.5
v 0.184314 -0.07634535 0.09083334
v 0.160575 -0.06651235 -0.125155
v 0.07634535 -0.184314 0.2866667
v 0 -0.1995 0.5
v 0 -0.1995 0.2866667
v 0.06950526 -0.06950526 -0.3085192
v 0 0 -0.5
v 0.1410678 -0.1410678 0.09083334
v 0.07634535 -0.184314 0.09083334
v 0 -0.1995 0.09083334
v 0 -0.1738051 -0.125155
v 0.1228988 -0.1228988 -0.125155
v 0.06651235 -0.160575 -0.125155
v 0 -0.09829528 -0.3085192
v 0.03761598 -0.090813 -0.3085192
v 0 0 -0.5
v 0 0 -0.5
v -0.07634535 0.184314 0.5
v 0 0.1995 0.5
v 0 -0.1995 0.5
v -0.07634535 -0.184314 0.5
v -0.1410678 0.1410678 0.5
v -0.1410678 -0.1410678 0.5
v -0.184314 0.07634535 0.5
v -0.184314 -0.07634535 0.5
v -0.1995 0 0.5
v 0.184314 0.07634535 0.5
v 0.1995 0 0.5
v 0.184314 -0.07634535 0.5
v 0.1410678 0.1410678 0.5
v 0.1410678 -0.1410678 0.5
v 0.07634535 0.184314 0.5
v 0.07634535 -0.184314 0.5
v 0 0.1995 0.5
v 0 -0.1995 0.5
vt 0.7050781 0.7626953
vt 0.625 0.7626953
vt 0.6650391 0.9257813
vt 0.625 0.6064453
vt 0.7050781 0.6064453
vt 0.7851563 0.7626953
vt 0.7451172 0.9257813
vt 0.5449219 0.6064453
vt 0.5449219 0.7626953
vt 0.5849609 0.9257813
vt 0.7851563 0.6064453
vt 0.8652344 0.7626953
vt 0.8251953 0.9257813
vt 0.625 0.4226074
vt 0.5449219 0.4226074
vt 0.7050781 0.4226074
vt 0.4650879 0.6064453
vt 0.4650879 0.4226074
vt 0.4650879 0.7626953
vt 0.5048828 0.9257813
vt 0.8652344 0.6064453
vt 0.9448242 0.7626953
vt 0.9047852 0.9257813
vt 0.9448242 0.6064453
vt 0.7851563 0.4226074
vt 0.8652344 0.4226074
vt 0.9448242 0.4226074
vt 0.9448242 0.2561035
vt 0.8652344 0.2561035
vt 0.9448242 0.07440186
vt 0.8652344 0.07440186
vt 0.7851563 0.2561035
vt 0.7851563 0.07440186
vt 0.7050781 0.2561035
vt 0.7050781 0.07440186
vt 0.625 0.2561035
vt 0.625 0.07440186
vt 0.5449219 0.2561035
vt 0.5449219 0.07440186
vt 0.4650879 0.2561035
vt 0.4650879 0.07440186
vt 0.3850098 0.4226074
vt 0.3850098 0.2561035
vt 0.3850098 0.07440186
vt 0.3049316 0.2561035
vt 0.3049316 0.07440186
vt 0.3049316 0.4226074
vt 0.3850098 0.6064453
vt 0.3049316 0.6064453
vt 0.3850098 0.7626953
vt 0.4250488 0.9257813
vt 0.3049316 0.7626953
vt 0.3449707 0.9257813
vt 0.3850098 0.7626953
vt 0.3049316 0.7626953
vt 0.3449707 0.9257813
vt 0.3049316 0.6064453
vt 0.3850098 0.6064453
vt 0.3049316 0.4226074
vt 0.4650879 0.7626953
vt 0.4250488 0.9257813
vt 0.3850098 0.4226074
vt 0.4650879 0.6064453
vt 0.3850098 0.2561035
vt 0.3049316 0.2561035
vt 0.3850098 0.07440186
vt 0.3049316 0.07440186
vt 0.4650879 0.07440186
vt 0.4650879 0.2561035
vt 0.5449219 0.07440186
vt 0.4650879 0.4226074
vt 0.5449219 0.2561035
vt 0.625 0.07440186
vt 0.5449219 0.7626953
vt 0.5048828 0.9257813
vt 0.5449219 0.6064453
vt 0.625 0.2561035
vt 0.7050781 0.07440186
vt 0.5449219 0.4226074
vt 0.625 0.7626953
vt 0.5849609 0.9257813
vt 0.7050781 0.2561035
vt 0.7851563 0.07440186
vt 0.625 0.4226074
vt 0.625 0.6064453
vt 0.7851563 0.2561035
vt 0.8652344 0.07440186
vt 0.7050781 0.7626953
vt 0.6650391 0.9257813
vt 0.7050781 0.4226074
vt 0.7050781 0.6064453
vt 0.8652344 0.2561035
vt 0.9448242 0.07440186
vt 0.9448242 0.2561035
vt 0.7851563 0.7626953
vt 0.7451172 0.9257813
vt 0.7851563 0.4226074
vt 0.8652344 0.4226074
vt 0.9448242 0.4226074
vt 0.9448242 0.6064453
vt 0.7851563 0.6064453
vt 0.8652344 0.6064453
vt 0.9448242 0.7626953
vt 0.8652344 0.7626953
vt 0.8251953 0.9257813
vt 0.9047852 0.9257813
vt 0.1687012 0.5043945
vt 0.2449951 0.5195313
vt 0.2449951 0.1204834
vt 0.1687012 0.1357422
vt 0.1039429 0.4611816
vt 0.1039429 0.1789551
vt 0.06069946 0.3962402
vt 0.06069946 0.2436523
vt 0.04550171 0.3200684
vt 0.06018066 0.3962402
vt 0.04501343 0.3200684
vt 0.06018066 0.2436523
vt 0.1034546 0.4611816
vt 0.1034546 0.1789551
vt 0.1682129 0.5043945
vt 0.1682129 0.1357422
vt 0.2445068 0.5195313
vt 0.2445068 0.1204834
vn -0.8388672 0.3474121 -0.4191895
vn -0.9077148 0 -0.4191895
vn -0.8442383 0.1679688 -0.5087891
vn -0.9677734 0 -0.2519531
vn -0.894043 0.3703613 -0.2519531
vn -0.6420898 0.6420898 -0.4191895
vn -0.7158203 0.4782715 -0.5087891
vn -0.894043 -0.3703613 -0.2519531
vn -0.8388672 -0.3474121 -0.4191895
vn -0.8442383 -0.1679688 -0.5087891
vn -0.684082 0.684082 -0.2519531
vn -0.3474121 0.8388672 -0.4191895
vn -0.4782715 0.7158203 -0.5087891
vn -0.9980469 0 -0.05917358
vn -0.9223633 -0.3820801 -0.05917358
vn -0.9223633 0.3820801 -0.05917358
vn -0.684082 -0.684082 -0.2519531
vn -0.7060547 -0.7060547 -0.05917358
vn -0.6420898 -0.6420898 -0.4191895
vn -0.7158203 -0.4782715 -0.5087891
vn -0.3703613 0.894043 -0.2519531
vn 0 0.9077148 -0.4191895
vn -0.1679688 0.8442383 -0.5087891
vn 0 0.9677734 -0.2519531
vn -0.7060547 0.7060547 -0.05917358
vn -0.3820801 0.9223633 -0.05917358
vn 0 0.9980469 -0.05917358
vn 0 1 0
vn -0.3825684 0.9238281 0
vn 0 1 0
vn -0.3825684 0.9238281 0
vn -0.7070313 0.7070313 0
vn -0.7070313 0.7070313 0
vn -0.9238281 0.3825684 0
vn -0.9238281 0.3825684 0
vn -1 0 0
vn -1 0 0
vn -0.9238281 -0.3825684 0
vn -0.9238281 -0.3825684 0
vn -0.7070313 -0.7070313 0
vn -0.7070313 -0.7070313 0
vn -0.3820801 -0.9223633 -0.05917358
vn -0.3825684 -0.9238281 0
vn -0.3825684 -0.9238281 0
vn 0 -1 0
vn 0 -1 0
vn 0 -0.9980469 -0.05917358
vn -0.3703613 -0.894043 -0.2519531
vn 0 -0.9677734 -0.2519531
vn -0.3474121 -0.8388672 -0.4191895
vn -0.4782715 -0.7158203 -0.5087891
vn 0 -0.9077148 -0.4191895
vn -0.1679688 -0.8442383 -0.5087891
vn 0.3474121 0.8388672 -0.4191895
vn 0 0.9077148 -0.4191895
vn 0.1679688 0.8442383 -0.5087891
vn 0 0.9677734 -0.2519531
vn 0.3703613 0.894043 -0.2519531
vn 0 0.9980469 -0.05917358
vn 0.6420898 0.6420898 -0.4191895
vn 0.4782715 0.7158203 -0.5087891
vn 0.3820801 0.9223633 -0.05917358
vn 0.684082 0.684082 -0.2519531
vn 0.3825684 0.9238281 0
vn 0 1 0
vn 0.3825684 0.9238281 0
vn 0 1 0
vn 0.7070313 0.7070313 0
vn 0.7070313 0.7070313 0
vn 0.9238281 0.3825684 0
vn 0.7060547 0.7060547 -0.05917358
vn 0.9238281 0.3825684 0
vn 1 0 0
vn 0.8388672 0.3474121 -0.4191895
vn 0.7158203 0.4782715 -0.5087891
vn 0.894043 0.3703613 -0.2519531
vn 1 0 0
vn 0.9238281 -0.3825684 0
vn 0.9223633 0.3820801 -0.05917358
vn 0.9077148 0 -0.4191895
vn 0.8442383 0.1679688 -0.5087891
vn 0.9238281 -0.3825684 0
vn 0.7070313 -0.7070313 0
vn 0.9980469 0 -0.05917358
vn 0.9677734 0 -0.2519531
vn 0.7070313 -0.7070313 0
vn 0.3825684 -0.9238281 0
vn 0.8388672 -0.3474121 -0.4191895
vn 0.8442383 -0.1679688 -0.5087891
vn 0.9223633 -0.3820801 -0.05917358
vn 0.894043 -0.3703613 -0.2519531
vn 0.3825684 -0.9238281 0
vn 0 -1 0
vn 0 -1 0
vn 0.6420898 -0.6420898 -0.4191895
vn 0.7158203 -0.4782715 -0.5087891
vn 0.7060547 -0.7060547 -0.05917358
vn 0.3820801 -0.9223633 -0.05917358
vn 0 -0.9980469 -0.05917358
vn 0 -0.9677734 -0.2519531
vn 0.684082 -0.684082 -0.2519531
vn 0.3703613 -0.894043 -0.2519531
vn 0 -0.9077148 -0.4191895
vn 0.3474121 -0.8388672 -0.4191895
vn 0.4782715 -0.7158203 -0.5087891
vn 0.1679688 -0.8442383 -0.5087891
vn 0 0 1
vn 0 0 1
vn 0 0 1
vn 0 0 1
vn 0 0 1
vn 0 0 1
vn 0 0 1
vn 0 0 1
vn 0 0 1
vn 0 0 1
vn 0 0 1
vn 0 0 1
vn 0 0 1
vn 0 0 1
vn 0 0 1
vn 0 0 1
vn 0 0 1
vn 0 0 1
g Bullet_Rifle_0
f 3/3/3 2/2/2 1/1/1
f 2/2/2 4/4/4 1/1/1
f 4/4/4 5/5/5 1/1/1
f 1/1/1 5/5/5 6/6/6
f 7/7/7 1/1/1 6/6/6
f 8/8/8 4/4/4 2/2/2
f 9/9/9 8/8/8 2/2/2
f 10/10/10 9/9/9 2/2/2
f 5/5/5 11/11/11 6/6/6
f 6/6/6 11/11/11 12/12/12
f 13/13/13 6/6/6 12/12/12
f 4/4/4 14/14/14 5/5/5
f 8/8/8 15/15/15 4/4/4
f 15/15/15 14/14/14 4/4/4
f 5/5/5 16/16/16 11/11/11
f 14/14/14 16/16/16 5/5/5
f 17/17/17 8/8/8 9/9/9
f 18/18/18 15/15/15 8/8/8
f 17/17/17 18/18/18 8/8/8
f 19/19/19 17/17/17 9/9/9
f 20/20/20 19/19/19 9/9/9
f 11/11/11 21/21/21 12/12/12
f 12/12/12 21/21/21 22/22/22
f 23/23/23 12/12/12 22/22/22
f 21/21/21 24/24/24 22/22/22
f 11/11/11 25/25/25 21/21/21
f 16/16/16 25/25/25 11/11/11
f 21/21/21 26/26/26 24/24/24
f 25/25/25 26/26/26 21/21/21
f 26/26/26 27/27/27 24/24/24
f 27/27/27 26/26/26 28/28/28
f 26/26/26 29/29/29 28/28/28
f 26/26/26 25/25/25 29/29/29
f 28/28/28 29/29/29 30/30/30
f 29/29/29 31/31/31 30/30/30
f 25/25/25 32/32/32 29/29/29
f 29/29/29 32/32/32 31/31/31
f 25/25/25 16/16/16 32/32/32
f 32/32/32 33/33/33 31/31/31
f 16/16/16 34/34/34 32/32/32
f 32/32/32 34/34/34 33/33/33
f 16/16/16 14/14/14 34/34/34
f 34/34/34 35/35/35 33/33/33
f 14/14/14 36/36/36 34/34/34
f 34/34/34 36/36/36 35/35/35
f 14/14/14 15/15/15 36/36/36
f 36/36/36 37/37/37 35/35/35
f 15/15/15 38/38/38 36/36/36
f 36/36/36 38/38/38 37/37/37
f 38/38/38 39/39/39 37/37/37
f 15/15/15 18/18/18 38/38/38
f 38/38/38 40/40/40 39/39/39
f 18/18/18 40/40/40 38/38/38
f 40/40/40 41/41/41 39/39/39
f 18/18/18 42/42/42 40/40/40
f 42/42/42 18/18/18 17/17/17
f 40/40/40 43/43/43 41/41/41
f 42/42/42 43/43/43 40/40/40
f 43/43/43 44/44/44 41/41/41
f 43/43/43 45/45/45 44/44/44
f 45/45/45 46/46/46 44/44/44
f 47/47/47 45/45/45 43/43/43
f 42/42/42 47/47/47 43/43/43
f 48/48/48 42/42/42 17/17/17
f 47/47/47 42/42/42 48/48/48
f 48/48/48 17/17/17 19/19/19
f 49/49/49 47/47/47 48/48/48
f 50/50/50 48/48/48 19/19/19
f 49/49/49 48/48/48 50/50/50
f 51/51/51 50/50/50 19/19/19
f 52/52/52 49/49/49 50/50/50
f 53/53/53 52/52/52 50/50/50
f 56/56/56 55/55/55 54/54/54
f 55/55/55 57/57/57 54/54/54
f 57/57/57 58/58/58 54/54/54
f 57/57/57 59/59/59 58/58/58
f 54/54/54 58/58/58 60/60/60
f 61/61/61 54/54/54 60/60/60
f 59/59/59 62/62/62 58/58/58
f 58/58/58 63/63/63 60/60/60
f 58/58/58 62/62/62 63/63/63
f 62/62/62 59/59/59 64/64/64
f 59/59/59 65/65/65 64/64/64
f 64/64/64 65/65/65 66/66/66
f 65/65/65 67/67/67 66/66/66
f 64/64/64 66/66/66 68/68/68
f 69/69/69 64/64/64 68/68/68
f 62/62/62 64/64/64 69/69/69
f 69/69/69 68/68/68 70/70/70
f 71/71/71 62/62/62 69/69/69
f 62/62/62 71/71/71 63/63/63
f 72/72/72 69/69/69 70/70/70
f 71/71/71 69/69/69 72/72/72
f 72/72/72 70/70/70 73/73/73
f 60/60/60 63/63/63 74/74/74
f 75/75/75 60/60/60 74/74/74
f 63/63/63 71/71/71 76/76/76
f 63/63/63 76/76/76 74/74/74
f 77/77/77 72/72/72 73/73/73
f 77/77/77 73/73/73 78/78/78
f 79/79/79 71/71/71 72/72/72
f 71/71/71 79/79/79 76/76/76
f 79/79/79 72/72/72 77/77/77
f 80/80/80 74/74/74 76/76/76
f 81/81/81 74/74/74 80/80/80
f 82/82/82 77/77/77 78/78/78
f 82/82/82 78/78/78 83/83/83
f 84/84/84 79/79/79 77/77/77
f 84/84/84 77/77/77 82/82/82
f 85/85/85 76/76/76 79/79/79
f 85/85/85 80/80/80 76/76/76
f 84/84/84 85/85/85 79/79/79
f 86/86/86 82/82/82 83/83/83
f 86/86/86 83/83/83 87/87/87
f 88/88/88 80/80/80 85/85/85
f 89/89/89 80/80/80 88/88/88
f 90/90/90 84/84/84 82/82/82
f 90/90/90 82/82/82 86/86/86
f 91/91/91 85/85/85 84/84/84
f 91/91/91 88/88/88 85/85/85
f 90/90/90 91/91/91 84/84/84
f 92/92/92 86/86/86 87/87/87
f 92/92/92 87/87/87 93/93/93
f 94/94/94 92/92/92 93/93/93
f 95/95/95 88/88/88 91/91/91
f 96/96/96 88/88/88 95/95/95
f 97/97/97 90/90/90 86/86/86
f 97/97/97 86/86/86 92/92/92
f 98/98/98 92/92/92 94/94/94
f 98/98/98 97/97/97 92/92/92
f 99/99/99 98/98/98 94/94/94
f 98/98/98 99/99/99 100/100/100
f 101/101/101 91/91/91 90/90/90
f 101/101/101 95/95/95 91/91/91
f 97/97/97 101/101/101 90/90/90
f 102/102/102 98/98/98 100/100/100
f 98/98/98 102/102/102 97/97/97
f 102/102/102 101/101/101 97/97/97
f 102/102/102 100/100/100 103/103/103
f 104/104/104 95/95/95 101/101/101
f 102/102/102 104/104/104 101/101/101
f 104/104/104 102/102/102 103/103/103
f 105/105/105 95/95/95 104/104/104
f 106/106/106 104/104/104 103/103/103
f 109/109/109 108/108/108 107/107/107
f 107/107/107 110/110/110 109/109/109
f 107/107/107 111/111/111 110/110/110
f 111/111/111 112/112/112 110/110/110
f 111/111/111 113/113/113 112/112/112
f 113/113/113 114/114/114 112/112/112
f 113/113/113 115/115/115 114/114/114
f 118/118/118 117/117/117 116/116/116
f 116/116/116 119/119/119 118/118/118
f 119/119/119 120/120/120 118/118/118
f 119/119/119 121/121/121 120/120/120
f 121/121/121 122/122/122 120/120/120
f 121/121/121 123/123/123 122/122/122
f 123/123/123 124/124/124 122/122/122
