g Bullet
v -0.3740758 0.0007803467 -0.2657396
v -0.2567986 -0.2492197 -0.2657396
v -0.2567986 -0.2492197 -0.3594896
v -0.3740758 0.0007803467 -0.3594896
v -0.2490758 0.2507803 -0.2657396
v -0.2490758 0.2507803 -0.3594896
v 0.0009242221 0.3757803 -0.3594896
v 0.0009242156 0.3757803 -0.2657396
v -0.3740758 0.0007803467 -0.2657396
v -0.3740758 0.0007803467 -0.3594896
v -0.2490758 0.2507803 -0.3594896
v -0.2490758 0.2507803 -0.2657396
v 0.0009242184 -0.3117197 -0.3594896
v 0.2196742 -0.2179697 -0.3594895
v 0.2196742 -0.2179697 -0.3282395
v 0.0009242184 -0.3117197 -0.3282396
v 0.0009242109 -0.3742197 -0.2657396
v 0.2509242 -0.2492197 -0.2657395
v 0.2509242 -0.2492197 -0.3594895
v 0.0009242184 -0.3742197 -0.3594896
v -0.2567986 -0.2492197 -0.2657396
v 0.0009242109 -0.3742197 -0.2657396
v 0.0009242184 -0.3742197 -0.3594896
v -0.2567986 -0.2492197 -0.3594896
v -0.2178258 0.2195303 -0.3594896
v -0.3115758 0.0007803467 -0.3594896
v -0.3115758 0.0007803467 -0.3282396
v -0.2178258 0.2195303 -0.3282396
v 0.0009242221 0.3132803 -0.3594896
v -0.2178258 0.2195303 -0.3594896
v -0.2178258 0.2195303 -0.3282396
v 0.0009242221 0.3132803 -0.3282396
v 0.3759242 0.0007803446 -0.3594895
v 0.3759242 0.0007803446 -0.2657395
v 0.2509242 0.2507803 -0.2657395
v 0.2509242 0.2507803 -0.3594895
v 0.3759242 0.0007803446 -0.3594895
v 0.2509242 -0.2492197 -0.3594895
v 0.2509242 -0.2492197 -0.2657395
v 0.3759242 0.0007803446 -0.2657395
v 0.0009242221 0.3757803 -0.3594896
v 0.2509242 0.2507803 -0.3594895
v 0.2509242 0.2507803 -0.2657395
v 0.0009242156 0.3757803 -0.2657396
v -0.3115758 0.0007803467 -0.3594896
v -0.2255486 -0.2179697 -0.3594896
v -0.2255486 -0.2179697 -0.3282396
v -0.3115758 0.0007803467 -0.3282396
v -0.2178258 0.2195303 -0.2657396
v -0.2178258 0.2195303 -0.2032396
v -0.3115758 0.0007803473 -0.2032396
v -0.3115758 0.0007803467 -0.2657396
v 0.0009242156 0.3132803 -0.2657396
v 0.000924206 0.3132803 -0.2032396
v -0.2178258 0.2195303 -0.2032396
v -0.2178258 0.2195303 -0.2657396
v -0.3115758 0.0007803467 -0.2657396
v -0.3115758 0.0007803473 -0.2032396
v -0.2255486 -0.2179697 -0.2032396
v -0.2255486 -0.2179697 -0.2657396
v 0.3134242 0.0007803446 -0.2657395
v 0.3134242 0.0007803452 -0.2032395
v 0.2196742 0.2195303 -0.2032395
v 0.2196742 0.2195303 -0.2657395
v 0.2196742 0.2195303 -0.2657395
v 0.2196742 0.2195303 -0.2032395
v 0.000924206 0.3132803 -0.2032396
v 0.0009242156 0.3132803 -0.2657396
v 0.2196742 -0.2179697 -0.2657395
v 0.2196742 -0.2179697 -0.2032395
v 0.3134242 0.0007803452 -0.2032395
v 0.3134242 0.0007803446 -0.2657395
v -0.2255486 -0.2179697 -0.2657396
v -0.2255486 -0.2179697 -0.2032396
v 0.0009242014 -0.3117197 -0.2032396
v 0.0009242109 -0.3117197 -0.2657396
v 0.0009242109 -0.3117197 -0.2657396
v 0.0009242014 -0.3117197 -0.2032396
v 0.2196742 -0.2179697 -0.2032395
v 0.2196742 -0.2179697 -0.2657395
v 0.3759242 0.0007803452 -0.2032395
v 0.3134241 0.0007803452 0.3905106
v 0.2196741 0.2195303 0.3905106
v 0.2509242 0.2507803 -0.2032395
v 0.0009242014 -0.3742197 -0.2032396
v 0.00092412 -0.3117197 0.3905104
v 0.2196741 -0.2179697 0.3905106
v 0.2509242 -0.2492197 -0.2032395
v -0.2567986 -0.2492197 -0.2032396
v -0.2255486 -0.2179697 0.3905104
v 0.00092412 -0.3117197 0.3905104
v 0.0009242014 -0.3742197 -0.2032396
v 0.2509242 -0.2492197 -0.2032395
v 0.2196741 -0.2179697 0.3905106
v 0.3134241 0.0007803452 0.3905106
v 0.3759242 0.0007803452 -0.2032395
v 0.2196741 -0.2179697 0.3905106
v 0.03217407 0.0007803467 0.6405106
v 0.03217407 0.0007803452 0.6405106
v 0.3134241 0.0007803452 0.3905106
v 0.2196741 0.2195303 0.3905106
v 0.03217407 0.0007803467 0.6405106
v 0.0009240626 0.03203035 0.6405104
v 0.0009241246 0.3132803 0.3905104
v -0.2178258 0.2195303 0.3905104
v -0.0303259 0.0007803467 0.6405104
v -0.03032593 0.0007803473 0.6405104
v -0.3115759 0.0007803473 0.3905104
v 0.0009241246 0.3132803 0.3905104
v 0.0009240626 0.03203035 0.6405104
v -0.0303259 0.0007803467 0.6405104
v -0.2178258 0.2195303 0.3905104
v -0.3740758 0.0007803473 -0.2032396
v -0.3115759 0.0007803473 0.3905104
v -0.2255486 -0.2179697 0.3905104
v -0.2567986 -0.2492197 -0.2032396
v 0.000924206 0.3757803 -0.2032396
v 0.0009241246 0.3132803 0.3905104
v -0.2178258 0.2195303 0.3905104
v -0.2490758 0.2507803 -0.2032396
v -0.2490758 0.2507803 -0.2032396
v -0.2178258 0.2195303 0.3905104
v -0.3115759 0.0007803473 0.3905104
v -0.3740758 0.0007803473 -0.2032396
v 0.2509242 0.2507803 -0.2032395
v 0.2196741 0.2195303 0.3905106
v 0.0009241246 0.3132803 0.3905104
v 0.000924206 0.3757803 -0.2032396
v -0.0303259 0.0007803467 0.6405104
v 0.0009240579 0.0007803473 0.6405104
v -0.03032593 0.0007803473 0.6405104
v 0.0009240626 0.03203035 0.6405104
v 0.03217407 0.0007803452 0.6405106
v 0.03217407 0.0007803467 0.6405106
v 0.0009240579 -0.03046965 0.6405104
v -0.03010504 0.0007803467 0.6405104
v -0.03032593 0.0007803473 0.6405104
v -0.2255486 -0.2179697 0.3905104
v -0.03010504 0.0007803467 0.6405104
v 0.0009240579 -0.03046965 0.6405104
v 0.00092412 -0.3117197 0.3905104
v 0.00092412 -0.3117197 0.3905104
v 0.0009240579 -0.03046965 0.6405104
v 0.03217407 0.0007803467 0.6405106
v 0.2196741 -0.2179697 0.3905106
v 0.3134241 0.0007803452 0.3905106
v 0.03217407 0.0007803452 0.6405106
v 0.03217407 0.0007803467 0.6405106
v 0.2196741 0.2195303 0.3905106
v -0.3115759 0.0007803473 0.3905104
v -0.03032593 0.0007803473 0.6405104
v -0.03010504 0.0007803467 0.6405104
v -0.2255486 -0.2179697 0.3905104
v 0.2509242 -0.2492197 -0.3594895
v 0.3759242 0.0007803446 -0.3594895
v 0.3134242 0.0007803446 -0.3594895
v 0.2196742 -0.2179697 -0.3594895
v 0.0009242184 -0.3742197 -0.3594896
v 0.0009242184 -0.3117197 -0.3594896
v -0.2567986 -0.2492197 -0.3594896
v -0.2255486 -0.2179697 -0.3594896
v -0.3740758 0.0007803467 -0.3594896
v -0.3115758 0.0007803467 -0.3594896
v -0.2490758 0.2507803 -0.3594896
v -0.2178258 0.2195303 -0.3594896
v 0.0009242221 0.3757803 -0.3594896
v 0.0009242221 0.3132803 -0.3594896
v 0.0009242221 0.3757803 -0.3594896
v 0.0009242221 0.3132803 -0.3594896
v 0.2196742 0.2195303 -0.3594895
v 0.2509242 0.2507803 -0.3594895
v 0.3134242 0.0007803446 -0.3594895
v 0.3759242 0.0007803446 -0.3594895
v 0.2196742 0.2195303 -0.3594895
v 0.2196742 0.2195303 -0.3282395
v 0.3134242 0.0007803446 -0.3282395
v 0.3134242 0.0007803446 -0.3594895
v -0.2255486 -0.2179697 -0.3594896
v 0.0009242184 -0.3117197 -0.3594896
v 0.0009242184 -0.3117197 -0.3282396
v -0.2255486 -0.2179697 -0.3282396
v 0.0009242221 0.3132803 -0.3594896
v 0.0009242221 0.3132803 -0.3282396
v 0.2196742 0.2195303 -0.3282395
v 0.2196742 0.2195303 -0.3594895
v 0.2196742 -0.2179697 -0.3594895
v 0.3134242 0.0007803446 -0.3594895
v 0.3134242 0.0007803446 -0.3282395
v 0.2196742 -0.2179697 -0.3282395
v 0.2196742 -0.2179697 -0.3282395
v 0.3134242 0.0007803446 -0.3282395
v 0.2196742 0.2195303 -0.3282395
v 0.0009242184 -0.3117197 -0.3282396
v 0.0009242221 0.3132803 -0.3282396
v -0.2178258 0.2195303 -0.3282396
v -0.2255486 -0.2179697 -0.3282396
v -0.3115758 0.0007803467 -0.3282396
v 0.3759242 0.0007803446 -0.2657395
v 0.3134242 0.0007803446 -0.2657395
v 0.2196742 0.2195303 -0.2657395
v 0.2509242 0.2507803 -0.2657395
v 0.2509242 -0.2492197 -0.2657395
v 0.0009242156 0.3132803 -0.2657396
v 0.2196742 -0.2179697 -0.2657395
v 0.0009242156 0.3757803 -0.2657396
v 0.0009242109 -0.3742197 -0.2657396
v -0.2178258 0.2195303 -0.2657396
v 0.0009242109 -0.3117197 -0.2657396
v -0.2490758 0.2507803 -0.2657396
v -0.2567986 -0.2492197 -0.2657396
v -0.3115758 0.0007803467 -0.2657396
v -0.2255486 -0.2179697 -0.2657396
v -0.3740758 0.0007803467 -0.2657396
v 0.0009242014 -0.3117197 -0.2032396
v 0.0009242014 -0.3742197 -0.2032396
v 0.2509242 -0.2492197 -0.2032395
v 0.2196742 -0.2179697 -0.2032395
v -0.2255486 -0.2179697 -0.2032396
v 0.3759242 0.0007803452 -0.2032395
v -0.2567986 -0.2492197 -0.2032396
v 0.3134242 0.0007803452 -0.2032395
v -0.3115758 0.0007803473 -0.2032396
v 0.2509242 0.2507803 -0.2032395
v -0.3740758 0.0007803473 -0.2032396
v 0.2196742 0.2195303 -0.2032395
v -0.2178258 0.2195303 -0.2032396
v 0.000924206 0.3757803 -0.2032396
v -0.2490758 0.2507803 -0.2032396
v 0.000924206 0.3132803 -0.2032396
vt 0.997916 0.4355648
vt 1 0.3442402
vt 0.9535248 0.3442761
vt 0.9514409 0.4356008
vt 0.9981232 0.5781702
vt 0.9516481 0.5782061
vt 0.9535248 0.6891953
vt 1 0.6891594
vt 0.997916 0.4355648
vt 0.9514409 0.4356008
vt 0.9516481 0.5782061
vt 0.9981232 0.5781702
vt 0.9500839 0.2113286
vt 0.950131 0.08985614
vt 0.9656227 0.08986993
vt 0.9655756 0.2113425
vt 0.9492815 0.5978847
vt 0.9495311 0.4552794
vt 0.9030559 0.4552288
vt 0.9028063 0.5978342
vt 0.9514408 0.6911634
vt 0.9492815 0.5978847
vt 0.9028063 0.5978342
vt 0.9049656 0.6911128
vt 0.09800404 0.9101433
vt 0.09799935 0.7886708
vt 0.1134911 0.7886627
vt 0.1134958 0.9101352
vt 0.09968578 1
vt 0.09800404 0.9101433
vt 0.1134958 0.9101352
vt 0.1151775 0.999992
vt 0.5577745 0.9454305
vt 0.6042396 0.9459111
vt 0.602957 0.8342277
vt 0.5564918 0.8337471
vt 0.9049656 0.3442402
vt 0.9030559 0.4552288
vt 0.9495311 0.4552794
vt 0.9514408 0.3442908
vt 0.5577745 0.6911128
vt 0.5564918 0.8337471
vt 0.602957 0.8342277
vt 0.6042396 0.6915935
vt 0.09799935 0.7886708
vt 0.09968574 0.7052506
vt 0.1151775 0.7052425
vt 0.1134911 0.7886627
vt 0.9355546 0.8960721
vt 0.9665381 0.8960561
vt 0.9665334 0.7745835
vt 0.9355499 0.7745997
vt 0.9372364 0.985929
vt 0.9682198 0.9859128
vt 0.9665381 0.8960561
vt 0.9355546 0.8960721
vt 0.9355499 0.7745997
vt 0.9665334 0.7745835
vt 0.9682198 0.6911634
vt 0.9372363 0.6911795
vt 0.06702253 0.9171739
vt 0.09799933 0.9174944
vt 0.09671663 0.8270041
vt 0.06573985 0.8266837
vt 0.06573985 0.8266837
vt 0.09671663 0.8270041
vt 0.09799935 0.7055629
vt 0.06702256 0.7052425
vt 0.9028534 0.7810195
vt 0.9338369 0.7810472
vt 0.9355499 0.691191
vt 0.9045665 0.6911634
vt 0.9045665 0.9878662
vt 0.9355499 0.9878938
vt 0.9337897 0.9025196
vt 0.9028063 0.902492
vt 0.9028063 0.902492
vt 0.9337897 0.9025196
vt 0.9338369 0.7810472
vt 0.9028534 0.7810195
vt 0.3094936 0.6924335
vt 0.3346355 0.9960938
vt 0.4225213 0.9947731
vt 0.4179626 0.6911128
vt 0.3094936 0.5978346
vt 0.6044289 0.5848681
vt 0.604476 0.4633956
vt 0.3097167 0.4552293
vt 0.3116703 0.6911128
vt 0.6061891 0.6702423
vt 0.6044289 0.5848681
vt 0.3094936 0.5978346
vt 0.3097167 0.4552293
vt 0.604476 0.4633956
vt 0.6061891 0.3735395
vt 0.3116058 0.3442402
vt 0.9500839 0.0895385
vt 0.8219043 0.1544801
vt 0.8219043 0.1544801
vt 0.9500839 0.2110421
vt 0.8646308 0.2948377
vt 0.8219043 0.1544801
vt 0.8015583 0.1628596
vt 0.7466242 0.2948376
vt 0.6652403 0.2068523
vt 0.79342 0.1419107
vt 0.79342 0.1419107
vt 0.6652403 0.0853487
vt 0.7466242 0.2948376
vt 0.8015583 0.1628596
vt 0.79342 0.1419107
vt 0.6652403 0.2068523
vt 0.6061891 0.4355643
vt 0.9011198 0.4486399
vt 0.9028062 0.3652198
vt 0.6082948 0.3442402
vt 0.6082128 0.6891595
vt 0.9028063 0.6599692
vt 0.9011245 0.5701124
vt 0.6063625 0.5781698
vt 0.6063625 0.5781698
vt 0.9011245 0.5701124
vt 0.9011198 0.4486399
vt 0.6061891 0.4355643
vt 0.4179626 0.6911128
vt 0.4225213 0.9947731
vt 0.5404673 0.9960938
vt 0.5564918 0.6924335
vt 0.79342 0.1419107
vt 0.8076621 0.1481954
vt 0.79342 0.1419107
vt 0.8015583 0.1628596
vt 0.8219043 0.1544801
vt 0.8219043 0.1544801
vt 0.8137659 0.1335312
vt 0.7935206 0.1419552
vt 0.79342 0.1419107
vt 0.7471737 0
vt 0.7935206 0.1419552
vt 0.8137659 0.1335312
vt 0.8687 0.001553159
vt 0.8687 0.001553159
vt 0.8137659 0.1335312
vt 0.8219043 0.1544801
vt 0.9500839 0.0895385
vt 0.9500839 0.2110421
vt 0.8219043 0.1544801
vt 0.8219043 0.1544801
vt 0.8646308 0.2948377
vt 0.6652403 0.0853487
vt 0.79342 0.1419107
vt 0.7935206 0.1419552
vt 0.7471737 0
vt 0.1780139 0.3442402
vt 0.3094936 0.3893655
vt 0.2875803 0.4119282
vt 0.1780139 0.3668029
vt 0.04653427 0.3893655
vt 0.06844755 0.4119281
vt 0 0.5275294
vt 0.02191327 0.5275293
vt 0.04653426 0.6601173
vt 0.06844753 0.6375546
vt 0.1780139 0.7052426
vt 0.1780139 0.68268
vt 0.3094936 0.6601173
vt 0.2875803 0.6375546
vt 0.04382655 0.9759943
vt 0.06573983 0.9534317
vt 0.02191328 0.8406184
vt 0 0.8406184
vt 0.06573985 0.7278052
vt 0.04382657 0.7052425
vt 0.146153 0.7052425
vt 0.1306653 0.7056038
vt 0.1306653 0.7874093
vt 0.146153 0.7870481
vt 0.9518441 0.2967028
vt 0.9500839 0.2113286
vt 0.9655756 0.2113425
vt 0.9673358 0.2967166
vt 0.1306653 0.7056037
vt 0.1151775 0.7052425
vt 0.1151775 0.7870481
vt 0.1306653 0.7874093
vt 0.950131 0.08985614
vt 0.9518441 0
vt 0.9673358 1.378489E-05
vt 0.9656227 0.08986993
vt 0.8910327 0.7786979
vt 0.8910326 0.9002014
vt 0.8055796 0.983997
vt 0.8096488 0.6907125
vt 0.687573 0.9839971
vt 0.6061891 0.8960117
vt 0.6881225 0.6891595
vt 0.6061891 0.7745081
vt 0.6652403 0.2586209
vt 0.637522 0.2443511
vt 0.5474374 0.3228354
vt 0.5543669 0.3442402
vt 0.6652403 0.1159222
vt 0.4296344 0.3157004
vt 0.6444516 0.1230571
vt 0.4157752 0.3442402
vt 0.5820853 0.001763234
vt 0.3534089 0.2229463
vt 0.5682261 0.03030298
vt 0.3326202 0.2300812
vt 0.4400685 0
vt 0.3603385 0.1016524
vt 0.4469981 0.0214048
vt 0.3326202 0.0873825
vt 0.235606 0.3139372
vt 0.2494652 0.3424769
vt 0.3326202 0.2283179
vt 0.3118314 0.221183
vt 0.114378 0.3228354
vt 0.3326202 0.0856192
vt 0.1074484 0.3442402
vt 0.3049018 0.09988908
vt 0.02771836 0.2425878
vt 0.2217467 0
vt 0 0.2568577
vt 0.2148172 0.02140478
vt 0.02078875 0.1212939
vt 0.08315501 0
vt 0 0.114159
vt 0.0970142 0.02853976
vn -0.9053341 -0.4247002 0
vn -0.9053341 -0.4247002 0
vn -0.9053341 -0.4247002 0
vn -0.9053341 -0.4247002 0
vn -0.4472136 0.8944272 0
vn -0.4472136 0.8944272 0
vn -0.4472136 0.8944272 0
vn -0.4472136 0.8944272 0
vn -0.8944272 0.4472136 0
vn -0.8944272 0.4472136 0
vn -0.8944272 0.4472136 0
vn -0.8944272 0.4472136 0
vn -0.3939193 0.919145 0
vn -0.3939193 0.919145 0
vn -0.3939193 0.919145 0
vn -0.3939193 0.919145 0
vn 0.4472137 -0.8944271 0
vn 0.4472137 -0.8944271 0
vn 0.4472137 -0.8944271 0
vn 0.4472137 -0.8944271 0
vn -0.4363964 -0.8997545 0
vn -0.4363964 -0.8997545 0
vn -0.4363964 -0.8997545 0
vn -0.4363964 -0.8997545 0
vn 0.9191449 -0.3939195 0
vn 0.9191449 -0.3939195 0
vn 0.9191449 -0.3939195 0
vn 0.9191449 -0.3939195 0
vn 0.3939193 -0.919145 0
vn 0.3939193 -0.919145 0
vn 0.3939193 -0.919145 0
vn 0.3939193 -0.919145 0
vn 0.8944272 0.4472136 0
vn 0.8944272 0.4472136 0
vn 0.8944272 0.4472136 0
vn 0.8944272 0.4472136 0
vn 0.8944272 -0.4472136 0
vn 0.8944272 -0.4472136 0
vn 0.8944272 -0.4472136 0
vn 0.8944272 -0.4472136 0
vn 0.4472136 0.8944272 0
vn 0.4472136 0.8944272 0
vn 0.4472136 0.8944272 0
vn 0.4472136 0.8944272 0
vn 0.9306216 0.3659829 0
vn 0.9306216 0.3659829 0
vn 0.9306216 0.3659829 0
vn 0.9306216 0.3659829 0
vn -0.919145 0.3939193 0
vn -0.919145 0.3939193 0
vn -0.919145 0.3939193 0
vn -0.919145 0.3939193 0
vn -0.3939193 0.919145 0
vn -0.3939193 0.919145 0
vn -0.3939193 0.919145 0
vn -0.3939193 0.919145 0
vn -0.9306216 -0.3659828 0
vn -0.9306216 -0.3659828 0
vn -0.9306216 -0.3659828 0
vn -0.9306216 -0.3659828 0
vn 0.919145 0.3939194 0
vn 0.919145 0.3939194 0
vn 0.919145 0.3939194 0
vn 0.919145 0.3939194 0
vn 0.3939193 0.9191451 0
vn 0.3939193 0.9191451 0
vn 0.3939193 0.9191451 0
vn 0.3939193 0.9191451 0
vn 0.919145 -0.3939194 0
vn 0.919145 -0.3939194 0
vn 0.919145 -0.3939194 0
vn 0.919145 -0.3939194 0
vn -0.3824811 -0.9239634 0
vn -0.3824811 -0.9239634 0
vn -0.3824811 -0.9239634 0
vn -0.3824811 -0.9239634 0
vn 0.3939193 -0.9191451 0
vn 0.3939193 -0.9191451 0
vn 0.3939193 -0.9191451 0
vn 0.3939193 -0.9191451 0
vn 0.9031023 0.4214478 0.08238843
vn 0.9031023 0.4214478 0.08238843
vn 0.9031023 0.4214478 0.08238843
vn 0.9031023 0.4214478 0.08238843
vn 0.4214478 -0.9031023 0.08238833
vn 0.4214478 -0.9031023 0.08238833
vn 0.4214478 -0.9031023 0.08238833
vn 0.4214478 -0.9031023 0.08238833
vn -0.41031 -0.9082069 0.08249813
vn -0.41031 -0.9082069 0.08249813
vn -0.41031 -0.9082069 0.08249813
vn -0.41031 -0.9082069 0.08249813
vn 0.9031023 -0.4214478 0.08238843
vn 0.9031023 -0.4214478 0.08238843
vn 0.9031023 -0.4214478 0.08238843
vn 0.9031023 -0.4214478 0.08238843
vn 0.6389679 -0.2738434 0.7188392
vn 0.6389679 -0.2738434 0.7188392
vn 0.6389679 -0.2738434 0.7188392
vn 0.6389679 -0.2738434 0.7188392
vn 0.30656 0.6131216 0.7280816
vn 0.30656 0.6131216 0.7280816
vn 0.30656 0.6131216 0.7280816
vn 0.30656 0.6131216 0.7280816
vn -0.638968 0.2738439 0.7188389
vn -0.638968 0.2738439 0.7188389
vn -0.638968 0.2738439 0.7188389
vn -0.638968 0.2738439 0.7188389
vn -0.3065608 0.6131213 0.7280816
vn -0.3065608 0.6131213 0.7280816
vn -0.3065608 0.6131213 0.7280816
vn -0.3065608 0.6131213 0.7280816
vn -0.9142912 -0.3965428 0.08261611
vn -0.9142912 -0.3965428 0.08261611
vn -0.9142912 -0.3965428 0.08261611
vn -0.9142912 -0.3965428 0.08261611
vn -0.4214478 0.9031023 0.08238824
vn -0.4214478 0.9031023 0.08238824
vn -0.4214478 0.9031023 0.08238824
vn -0.4214478 0.9031023 0.08238824
vn -0.9031023 0.4214478 0.08238814
vn -0.9031023 0.4214478 0.08238814
vn -0.9031023 0.4214478 0.08238814
vn -0.9031023 0.4214478 0.08238814
vn 0.4214478 0.9031023 0.08238833
vn 0.4214478 0.9031023 0.08238833
vn 0.4214478 0.9031023 0.08238833
vn 0.4214478 0.9031023 0.08238833
vn 0 2.293689E-06 1
vn 0 2.293689E-06 1
vn 0 2.293689E-06 1
vn 0 2.293689E-06 1
vn -3.814696E-06 0 1
vn -3.814696E-06 0 1
vn 0 -3.841855E-06 1
vn 0 -3.841855E-06 1
vn 0 -3.841855E-06 1
vn -0.2981347 -0.6141619 0.7306989
vn -0.2981347 -0.6141619 0.7306989
vn -0.2981347 -0.6141619 0.7306989
vn -0.2981347 -0.6141619 0.7306989
vn 0.3065601 -0.6131216 0.7280816
vn 0.3065601 -0.6131216 0.7280816
vn 0.3065601 -0.6131216 0.7280816
vn 0.3065601 -0.6131216 0.7280816
vn 0.638968 0.2738432 0.7188392
vn 0.638968 0.2738432 0.7188392
vn 0.638968 0.2738432 0.7188392
vn 0.638968 0.2738432 0.7188392
vn -0.6424173 -0.2532907 0.7232869
vn -0.6424173 -0.2532907 0.7232869
vn -0.6424173 -0.2532907 0.7232869
vn -0.6424173 -0.2532907 0.7232869
vn 3.30118E-07 -5.135169E-07 -1
vn 0 0 -1
vn 0 0 -1
vn 3.30118E-07 -5.135169E-07 -1
vn 3.30118E-07 -5.135169E-07 -1
vn 3.30118E-07 -5.135169E-07 -1
vn 0 0 -1
vn 0 0 -1
vn 0 0 -1
vn 0 0 -1
vn 0 0 -1
vn 0 0 -1
vn 0 0 -1
vn 0 0 -1
vn 3.30118E-07 5.868764E-07 -1
vn 3.30118E-07 5.868764E-07 -1
vn 3.30118E-07 5.868764E-07 -1
vn 3.30118E-07 5.868764E-07 -1
vn 0 0 -1
vn 0 0 -1
vn -0.919145 -0.3939193 0
vn -0.919145 -0.3939193 0
vn -0.919145 -0.3939193 0
vn -0.919145 -0.3939193 0
vn 0.3824813 0.9239632 0
vn 0.3824813 0.9239632 0
vn 0.3824813 0.9239632 0
vn 0.3824813 0.9239632 0
vn -0.3939193 -0.9191451 0
vn -0.3939193 -0.9191451 0
vn -0.3939193 -0.9191451 0
vn -0.3939193 -0.9191451 0
vn -0.919145 0.3939193 0
vn -0.919145 0.3939193 0
vn -0.919145 0.3939193 0
vn -0.919145 0.3939193 0
vn 0 0 -1
vn 0 0 -1
vn 0 0 -1
vn 0 0 -1
vn 0 0 -1
vn 0 0 -1
vn 0 0 -1
vn 0 0 -1
vn 0 0 1
vn 0 0 1
vn 0 0 1
vn 0 0 1
vn -3.30118E-07 0 1
vn 0 0 1
vn -3.30118E-07 0 1
vn 0 0 1
vn 0 0 1
vn 0 0 1
vn 0 0 1
vn 0 0 1
vn 0 0 1
vn 0 0 1
vn 0 0 1
vn 0 0 1
vn 3.30118E-07 0 -1
vn 3.30118E-07 0 -1
vn 3.30118E-07 0 -1
vn 3.30118E-07 0 -1
vn 0 0 -1
vn 0 0 -1
vn 0 0 -1
vn 0 0 -1
vn 0 0 -1
vn 0 0 -1
vn 0 0 -1
vn 0 0 -1
vn 0 0 -1
vn 0 0 -1
vn 0 0 -1
vn 0 0 -1
g Bullet_0
f 3/3/3 2/2/2 1/1/1
f 4/4/4 3/3/3 1/1/1
f 7/7/7 6/6/6 5/5/5
f 8/8/8 7/7/7 5/5/5
f 11/11/11 10/10/10 9/9/9
f 12/12/12 11/11/11 9/9/9
f 15/15/15 14/14/14 13/13/13
f 16/16/16 15/15/15 13/13/13
f 19/19/19 18/18/18 17/17/17
f 20/20/20 19/19/19 17/17/17
f 23/23/23 22/22/22 21/21/21
f 24/24/24 23/23/23 21/21/21
f 27/27/27 26/26/26 25/25/25
f 28/28/28 27/27/27 25/25/25
f 31/31/31 30/30/30 29/29/29
f 32/32/32 31/31/31 29/29/29
f 35/35/35 34/34/34 33/33/33
f 36/36/36 35/35/35 33/33/33
f 39/39/39 38/38/38 37/37/37
f 40/40/40 39/39/39 37/37/37
f 43/43/43 42/42/42 41/41/41
f 44/44/44 43/43/43 41/41/41
f 47/47/47 46/46/46 45/45/45
f 48/48/48 47/47/47 45/45/45
f 51/51/51 50/50/50 49/49/49
f 52/52/52 51/51/51 49/49/49
f 55/55/55 54/54/54 53/53/53
f 56/56/56 55/55/55 53/53/53
f 59/59/59 58/58/58 57/57/57
f 60/60/60 59/59/59 57/57/57
f 63/63/63 62/62/62 61/61/61
f 64/64/64 63/63/63 61/61/61
f 67/67/67 66/66/66 65/65/65
f 68/68/68 67/67/67 65/65/65
f 71/71/71 70/70/70 69/69/69
f 72/72/72 71/71/71 69/69/69
f 75/75/75 74/74/74 73/73/73
f 76/76/76 75/75/75 73/73/73
f 79/79/79 78/78/78 77/77/77
f 80/80/80 79/79/79 77/77/77
f 83/83/83 82/82/82 81/81/81
f 84/84/84 83/83/83 81/81/81
f 87/87/87 86/86/86 85/85/85
f 88/88/88 87/87/87 85/85/85
f 91/91/91 90/90/90 89/89/89
f 92/92/92 91/91/91 89/89/89
f 95/95/95 94/94/94 93/93/93
f 96/96/96 95/95/95 93/93/93
f 99/99/99 98/98/98 97/97/97
f 100/100/100 99/99/99 97/97/97
f 103/103/103 102/102/102 101/101/101
f 104/104/104 103/103/103 101/101/101
f 107/107/107 106/106/106 105/105/105
f 108/108/108 107/107/107 105/105/105
f 111/111/111 110/110/110 109/109/109
f 112/112/112 111/111/111 109/109/109
f 115/115/115 114/114/114 113/113/113
f 116/116/116 115/115/115 113/113/113
f 119/119/119 118/118/118 117/117/117
f 120/120/120 119/119/119 117/117/117
f 123/123/123 122/122/122 121/121/121
f 124/124/124 123/123/123 121/121/121
f 127/127/127 126/126/126 125/125/125
f 128/128/128 127/127/127 125/125/125
f 131/131/131 130/130/130 129/129/129
f 130/130/130 132/132/132 129/129/129
f 130/130/130 133/133/133 132/132/132
f 133/133/133 134/134/134 132/132/132
f 134/134/134 133/133/133 130/130/130
f 135/135/135 134/134/134 130/130/130
f 136/136/136 135/135/135 130/130/130
f 137/137/137 136/136/136 130/130/130
f 140/140/140 139/139/139 138/138/138
f 141/141/141 140/140/140 138/138/138
f 144/144/144 143/143/143 142/142/142
f 145/145/145 144/144/144 142/142/142
f 148/148/148 147/147/147 146/146/146
f 149/149/149 148/148/148 146/146/146
f 152/152/152 151/151/151 150/150/150
f 153/153/153 152/152/152 150/150/150
f 156/156/156 155/155/155 154/154/154
f 157/157/157 156/156/156 154/154/154
f 157/157/157 154/154/154 158/158/158
f 159/159/159 157/157/157 158/158/158
f 159/159/159 158/158/158 160/160/160
f 161/161/161 159/159/159 160/160/160
f 161/161/161 160/160/160 162/162/162
f 163/163/163 161/161/161 162/162/162
f 163/163/163 162/162/162 164/164/164
f 165/165/165 163/163/163 164/164/164
f 165/165/165 164/164/164 166/166/166
f 167/167/167 165/165/165 166/166/166
f 170/170/170 169/169/169 168/168/168
f 171/171/171 170/170/170 168/168/168
f 172/172/172 170/170/170 171/171/171
f 173/173/173 172/172/172 171/171/171
f 176/176/176 175/175/175 174/174/174
f 177/177/177 176/176/176 174/174/174
f 180/180/180 179/179/179 178/178/178
f 181/181/181 180/180/180 178/178/178
f 184/184/184 183/183/183 182/182/182
f 185/185/185 184/184/184 182/182/182
f 188/188/188 187/187/187 186/186/186
f 189/189/189 188/188/188 186/186/186
f 192/192/192 191/191/191 190/190/190
f 190/190/190 193/193/193 192/192/192
f 193/193/193 194/194/194 192/192/192
f 193/193/193 195/195/195 194/194/194
f 193/193/193 196/196/196 195/195/195
f 196/196/196 197/197/197 195/195/195
f 200/200/200 199/199/199 198/198/198
f 201/201/201 200/200/200 198/198/198
f 198/198/198 199/199/199 202/202/202
f 203/203/203 200/200/200 201/201/201
f 199/199/199 204/204/204 202/202/202
f 205/205/205 203/203/203 201/201/201
f 202/202/202 204/204/204 206/206/206
f 207/207/207 203/203/203 205/205/205
f 204/204/204 208/208/208 206/206/206
f 209/209/209 207/207/207 205/205/205
f 206/206/206 208/208/208 210/210/210
f 211/211/211 207/207/207 209/209/209
f 208/208/208 212/212/212 210/210/210
f 213/213/213 211/211/211 209/209/209
f 210/210/210 212/212/212 213/213/213
f 212/212/212 211/211/211 213/213/213
f 216/216/216 215/215/215 214/214/214
f 217/217/217 216/216/216 214/214/214
f 214/214/214 215/215/215 218/218/218
f 219/219/219 216/216/216 217/217/217
f 215/215/215 220/220/220 218/218/218
f 221/221/221 219/219/219 217/217/217
f 218/218/218 220/220/220 222/222/222
f 223/223/223 219/219/219 221/221/221
f 220/220/220 224/224/224 222/222/222
f 225/225/225 223/223/223 221/221/221
f 222/222/222 224/224/224 226/226/226
f 227/227/227 223/223/223 225/225/225
f 224/224/224 228/228/228 226/226/226
f 229/229/229 227/227/227 225/225/225
f 226/226/226 228/228/228 229/229/229
f 228/228/228 227/227/227 229/229/229
